<svg width="25" height="24" viewBox="0 0 25 24" fill="none" xmlns="http://www.w3.org/2000/svg">
<path d="M24.5185 12.0748C24.5185 5.40422 19.143 0 12.518 0C5.88853 0 0.517578 5.40422 0.517578 12.0748C0.517578 18.1001 4.90449 23.096 10.643 24.0009V15.5659H7.59559V12.0755H10.643V9.4138C10.643 6.38831 12.4318 4.71746 15.1739 4.71746C16.4872 4.71746 17.862 4.95292 17.862 4.95292V7.92407H16.3462C14.8581 7.92407 14.3931 8.85609 14.3931 9.81076V12.0748H17.721L17.1862 15.5651H14.3931V24.0001C20.1271 23.0953 24.5185 18.0993 24.5185 12.074V12.0748Z" fill="white"/>
</svg>
