<svg width="24" height="23" viewBox="0 0 24 23" fill="none" xmlns="http://www.w3.org/2000/svg">
<path d="M12.1915 7.87139C10.1081 7.87139 8.40796 9.57158 8.40796 11.655C8.40796 13.7383 10.1081 15.4385 12.1915 15.4385C14.2748 15.4385 15.975 13.7383 15.975 11.655C15.975 9.57158 14.2748 7.87139 12.1915 7.87139ZM23.5391 11.655C23.5391 10.0882 23.5533 8.53557 23.4653 6.97162C23.3773 5.15505 22.9629 3.54285 21.6346 2.21448C20.3034 0.88328 18.6941 0.471714 16.8775 0.383724C15.3108 0.295734 13.7582 0.309926 12.1943 0.309926C10.6275 0.309926 9.07497 0.295734 7.51104 0.383724C5.69451 0.471714 4.08234 0.886118 2.754 2.21448C1.42282 3.54569 1.01126 5.15505 0.923274 6.97162C0.835285 8.53841 0.849477 10.091 0.849477 11.655C0.849477 13.2189 0.835285 14.7743 0.923274 16.3383C1.01126 18.1549 1.42566 19.7671 2.754 21.0954C4.08518 22.4266 5.69451 22.8382 7.51104 22.9262C9.0778 23.0142 10.6304 23 12.1943 23C13.7611 23 15.3136 23.0142 16.8775 22.9262C18.6941 22.8382 20.3062 22.4238 21.6346 21.0954C22.9658 19.7642 23.3773 18.1549 23.4653 16.3383C23.5561 14.7743 23.5391 13.2217 23.5391 11.655ZM12.1915 17.4765C8.96995 17.4765 6.37003 14.8765 6.37003 11.655C6.37003 8.43339 8.96995 5.83342 12.1915 5.83342C15.413 5.83342 18.0129 8.43339 18.0129 11.655C18.0129 14.8765 15.413 17.4765 12.1915 17.4765ZM18.2513 6.95459C17.4991 6.95459 16.8917 6.34717 16.8917 5.595C16.8917 4.84283 17.4991 4.23541 18.2513 4.23541C19.0035 4.23541 19.6109 4.84283 19.6109 5.595C19.6111 5.77361 19.5761 5.9505 19.5078 6.11556C19.4396 6.28061 19.3394 6.43058 19.2132 6.55687C19.0869 6.68317 18.9369 6.78331 18.7718 6.85155C18.6068 6.9198 18.4299 6.95481 18.2513 6.95459Z" fill="white"/>
</svg>
