<svg width="25" height="24" viewBox="0 0 25 24" fill="none" xmlns="http://www.w3.org/2000/svg">
<path d="M12.8813 0C6.25356 0 0.880859 5.3727 0.880859 12.0004C0.880859 18.6282 6.25356 24.0009 12.8813 24.0009C19.509 24.0009 24.8817 18.6282 24.8817 12.0004C24.8817 5.3727 19.509 0 12.8813 0ZM9.94369 16.9744H7.5136V9.15409H9.94369V16.9744ZM8.71365 8.19405C7.94612 8.19405 7.44985 7.65028 7.44985 6.97776C7.44985 6.29148 7.96112 5.76396 8.7449 5.76396C9.52868 5.76396 10.0087 6.29148 10.0237 6.97776C10.0237 7.65028 9.52868 8.19405 8.71365 8.19405ZM18.819 16.9744H16.3889V12.6405C16.3889 11.6317 16.0364 10.9467 15.1576 10.9467C14.4864 10.9467 14.0876 11.4104 13.9113 11.8567C13.8463 12.0154 13.8301 12.2404 13.8301 12.4642V16.9731H11.3987V11.6479C11.3987 10.6716 11.3675 9.85536 11.335 9.15284H13.4463L13.5576 10.2391H13.6063C13.9263 9.72911 14.7101 8.97658 16.0214 8.97658C17.6202 8.97658 18.819 10.0479 18.819 12.3505V16.9744Z" fill="white"/>
</svg>
