<svg width="25" height="24" viewBox="0 0 25 24" fill="none" xmlns="http://www.w3.org/2000/svg">
<path d="M12.5893 0C5.96228 0 0.588867 5.37341 0.588867 12.0004C0.588867 18.6275 5.96228 24.0009 12.5893 24.0009C19.2163 24.0009 24.5898 18.6275 24.5898 12.0004C24.5898 5.37341 19.2163 0 12.5893 0ZM18.3565 9.04587C18.3645 9.17177 18.3645 9.30302 18.3645 9.4316C18.3645 13.3639 15.3698 17.8935 9.89725 17.8935C8.20968 17.8935 6.64534 17.4033 5.32743 16.5595C5.56851 16.5863 5.79888 16.597 6.04532 16.597C7.43823 16.597 8.71863 16.1256 9.7392 15.3273C8.43201 15.3006 7.33376 14.4434 6.95874 13.2648C7.4168 13.3317 7.82931 13.3317 8.30076 13.2112C7.62768 13.0745 7.0227 12.7089 6.5886 12.1767C6.15449 11.6444 5.91805 10.9783 5.91942 10.2915V10.2539C6.31318 10.4763 6.7766 10.6129 7.26143 10.6316C6.85385 10.36 6.5196 9.992 6.2883 9.56025C6.05701 9.1285 5.93582 8.64635 5.93549 8.15655C5.93549 7.60207 6.08014 7.0958 6.33997 6.6565C7.08706 7.57618 8.01931 8.32837 9.07614 8.86416C10.133 9.39996 11.2907 9.70738 12.4741 9.76643C12.0536 7.74404 13.5643 6.10737 15.3805 6.10737C16.2377 6.10737 17.0091 6.46631 17.5529 7.0449C18.2252 6.919 18.8681 6.66721 19.4413 6.3297C19.219 7.01812 18.7529 7.59939 18.1342 7.96636C18.7342 7.90208 19.3128 7.736 19.8485 7.50295C19.444 8.09762 18.9378 8.62532 18.3565 9.04587Z" fill="white"/>
</svg>
