<svg width="29" height="21" viewBox="0 0 29 21" fill="none" xmlns="http://www.w3.org/2000/svg">
<path d="M28.3992 17.1197C28.2352 17.7269 27.9138 18.2806 27.467 18.7255C27.0202 19.1703 26.4638 19.4906 25.8534 19.6544C23.6065 20.2554 14.5998 20.2554 14.5998 20.2554C14.5998 20.2554 5.59299 20.2554 3.34612 19.6576C2.73545 19.4944 2.17873 19.1742 1.73187 18.7293C1.285 18.2844 0.96373 17.7303 0.800312 17.1229C0.199219 14.8854 0.199219 10.2186 0.199219 10.2186C0.199219 10.2186 0.199219 5.55188 0.800312 3.31758C1.1314 2.08377 2.10857 1.11206 3.34612 0.782831C5.59299 0.181906 14.5998 0.181906 14.5998 0.181906C14.5998 0.181906 23.6065 0.181906 25.8534 0.782831C27.0941 1.11206 28.0681 2.08377 28.3992 3.31758C29.0003 5.55188 29.0003 10.2186 29.0003 10.2186C29.0003 10.2186 29.0003 14.8854 28.3992 17.1197ZM11.7389 5.93545V14.5018L19.1963 10.2506L11.7389 5.93545Z" fill="white"/>
</svg>
