<?xml version="1.0" encoding="UTF-8" standalone="no"?>
<svg
   xmlns:dc="http://purl.org/dc/elements/1.1/"
   xmlns:cc="http://creativecommons.org/ns#"
   xmlns:rdf="http://www.w3.org/1999/02/22-rdf-syntax-ns#"
   xmlns:svg="http://www.w3.org/2000/svg"
   xmlns="http://www.w3.org/2000/svg"
   xmlns:xlink="http://www.w3.org/1999/xlink"
   xmlns:sodipodi="http://sodipodi.sourceforge.net/DTD/sodipodi-0.dtd"
   xmlns:inkscape="http://www.inkscape.org/namespaces/inkscape"
   width="162.52975mm"
   height="162.52975mm"
   viewBox="0 0 162.52975 162.52975"
   version="1.1"
   id="svg8"
   inkscape:version="1.0.2 (e86c8708, 2021-01-15)"
   sodipodi:docname="fslogo.svg">
  <defs
     id="defs2">
    <linearGradient
       inkscape:collect="always"
       id="linearGradient843">
      <stop
         style="stop-color:#fd0037;stop-opacity:1;"
         offset="0"
         id="stop839" />
      <stop
         style="stop-color:#0066ff;stop-opacity:1"
         offset="1"
         id="stop841" />
    </linearGradient>
    <linearGradient
       inkscape:collect="always"
       xlink:href="#linearGradient843"
       id="linearGradient845"
       x1="-219.98213"
       y1="71.4375"
       x2="-103.56548"
       y2="171.97917"
       gradientUnits="userSpaceOnUse" />
  </defs>
  <sodipodi:namedview
     id="base"
     pagecolor="#ffffff"
     bordercolor="#666666"
     borderopacity="1.0"
     inkscape:pageopacity="0.0"
     inkscape:pageshadow="2"
     inkscape:zoom="0.35"
     inkscape:cx="869.50639"
     inkscape:cy="275.3832"
     inkscape:document-units="mm"
     inkscape:current-layer="layer1"
     inkscape:document-rotation="0"
     showgrid="false"
     inkscape:window-width="1920"
     inkscape:window-height="972"
     inkscape:window-x="0"
     inkscape:window-y="25"
     inkscape:window-maximized="1" />
  <metadata
     id="metadata5">
    <rdf:RDF>
      <cc:Work
         rdf:about="">
        <dc:format>image/svg+xml</dc:format>
        <dc:type
           rdf:resource="http://purl.org/dc/dcmitype/StillImage" />
        <dc:title></dc:title>
      </cc:Work>
    </rdf:RDF>
  </metadata>
  <g
     inkscape:label="Layer 1"
     inkscape:groupmode="layer"
     id="layer1"
     transform="translate(247.95238,-39.309525)">
    <circle
       style="fill:url(#linearGradient845);fill-opacity:1;stroke-width:4.99999;stroke-linecap:square"
       id="path837"
       cx="-166.6875"
       cy="120.5744"
       r="81.264877" />
    <path
       id="circle888"
       style="fill:#ffffff;fill-opacity:1;stroke-width:18.8976;stroke-linecap:square"
       d="m -694.78906,240.66016 c -0.81667,1.5e-4 -1.6356,0.0101 -2.45508,0.0332 -84.19133,0 -112.48438,61.23837 -112.48438,142.39648 v 25.08594 h -58.6582 v 58.28516 h 58.6582 v 238.32031 a 307.14284,307.14284 0 0 0 64.86719,35.78906 V 466.46094 h 91.09375 v -58.28516 h -91.09375 v -25.08594 c 0,-54.59728 20.01287,-80.41992 50.37695,-80.41992 15.87214,0 31.74435,5.90126 44.16602,16.23047 l 23.46289,-50.16992 c -18.71877,-17.15388 -42.61703,-28.0752 -67.93359,-28.07031 z m 195.27734,159.39843 c -63.48854,0 -126.97787,30.9884 -127.66797,109.19532 0,149.03581 191.15494,60.49902 190.46485,149.03515 0,35.41445 -39.33443,48.69532 -66.24805,48.69532 -33.12446,0 -66.24936,-14.01854 -66.93945,-60.5 h -62.10743 c 0,60.11454 27.70381,93.89753 65.63477,109.71093 a 307.14284,307.14284 0 0 0 190.79102,-128.4082 c -24.45057,-110.6875 -188.10743,-40.7066 -188.10743,-118.5332 0.6901,-31.72545 26.91468,-46.48243 64.17969,-46.48243 31.05418,0 59.34766,15.49478 59.34766,46.48243 h 61.41797 c 0,-81.15812 -55.8969,-109.19532 -120.76563,-109.19532 z"
       transform="scale(0.26458333)" />
  </g>
</svg>
