<svg width="170" height="20" viewBox="0 0 170 26" fill="none" xmlns="http://www.w3.org/2000/svg">
<path d="M32.18 10.66H28.08V7H41V10.66H36.9V21H32.18V10.66ZM42.2259 7H46.9459V21H42.2259V7ZM54.4381 21.32C53.2781 21.32 52.1448 21.1933 51.0381 20.94C49.9448 20.6733 49.0448 20.32 48.3381 19.88L49.8581 16.44C50.5248 16.8267 51.2715 17.14 52.0981 17.38C52.9248 17.6067 53.7181 17.72 54.4781 17.72C55.1315 17.72 55.5981 17.66 55.8781 17.54C56.1581 17.4067 56.2981 17.2133 56.2981 16.96C56.2981 16.6667 56.1115 16.4467 55.7381 16.3C55.3781 16.1533 54.7781 15.9933 53.9381 15.82C52.8581 15.5933 51.9581 15.3533 51.2381 15.1C50.5181 14.8333 49.8915 14.4067 49.3581 13.82C48.8248 13.22 48.5581 12.4133 48.5581 11.4C48.5581 10.52 48.8048 9.72 49.2981 9C49.7915 8.28 50.5248 7.71333 51.4981 7.3C52.4848 6.88667 53.6781 6.68 55.0781 6.68C56.0381 6.68 56.9781 6.78667 57.8981 7C58.8315 7.2 59.6515 7.5 60.3581 7.9L58.9381 11.32C57.5648 10.6267 56.2648 10.28 55.0381 10.28C53.8248 10.28 53.2181 10.5733 53.2181 11.16C53.2181 11.44 53.3981 11.6533 53.7581 11.8C54.1181 11.9333 54.7115 12.08 55.5381 12.24C56.6048 12.44 57.5048 12.6733 58.2381 12.94C58.9715 13.1933 59.6048 13.6133 60.1381 14.2C60.6848 14.7867 60.9581 15.5867 60.9581 16.6C60.9581 17.48 60.7115 18.28 60.2181 19C59.7248 19.7067 58.9848 20.2733 57.9981 20.7C57.0248 21.1133 55.8381 21.32 54.4381 21.32Z" fill="#EC1D24"/>
<path d="M75.84 7V21H75L65.46 8.84V21H64.44V7H65.3L74.82 19.16V7H75.84ZM90.3891 20.08V21H80.7291V7H90.0891V7.92H81.7491V13.44H89.2091V14.34H81.7491V20.08H90.3891ZM96.788 7.92H91.748V7H102.848V7.92H97.808V21H96.788V7.92ZM124.039 7L119.299 21H118.219L113.879 8.44L109.519 21H108.439L103.679 7H104.759L109.019 19.6L113.399 7H114.379L118.739 19.62L123.039 7H124.039ZM132.782 21.1C131.409 21.1 130.169 20.7933 129.062 20.18C127.956 19.5533 127.082 18.7 126.442 17.62C125.816 16.54 125.502 15.3333 125.502 14C125.502 12.6667 125.816 11.46 126.442 10.38C127.082 9.3 127.956 8.45333 129.062 7.84C130.169 7.21333 131.409 6.9 132.782 6.9C134.156 6.9 135.396 7.20667 136.502 7.82C137.609 8.43333 138.476 9.28 139.102 10.36C139.742 11.44 140.062 12.6533 140.062 14C140.062 15.3467 139.742 16.56 139.102 17.64C138.476 18.72 137.609 19.5667 136.502 20.18C135.396 20.7933 134.156 21.1 132.782 21.1ZM132.782 20.16C133.956 20.16 135.016 19.8933 135.962 19.36C136.909 18.8267 137.656 18.0933 138.202 17.16C138.749 16.2133 139.022 15.16 139.022 14C139.022 12.84 138.749 11.7933 138.202 10.86C137.656 9.91333 136.909 9.17333 135.962 8.64C135.016 8.10667 133.956 7.84 132.782 7.84C131.609 7.84 130.542 8.10667 129.582 8.64C128.636 9.17333 127.889 9.91333 127.342 10.86C126.796 11.7933 126.522 12.84 126.522 14C126.522 15.16 126.796 16.2133 127.342 17.16C127.889 18.0933 128.636 18.8267 129.582 19.36C130.542 19.8933 131.609 20.16 132.782 20.16ZM153.32 21L149.98 16.32C149.487 16.3867 149.033 16.42 148.62 16.42H144.62V21H143.6V7H148.62C150.38 7 151.76 7.42 152.76 8.26C153.76 9.08667 154.26 10.24 154.26 11.72C154.26 12.8267 153.973 13.76 153.4 14.52C152.84 15.2667 152.033 15.7933 150.98 16.1L154.48 21H153.32ZM148.62 15.52C150.113 15.52 151.253 15.1933 152.04 14.54C152.827 13.8733 153.22 12.9333 153.22 11.72C153.22 10.5067 152.827 9.57333 152.04 8.92C151.253 8.25333 150.113 7.92 148.62 7.92H144.62V15.52H148.62ZM162.155 14.1L159.015 17.32V21H157.995V7H159.015V16L167.755 7H168.995L162.835 13.36L169.415 21H168.175L162.155 14.1Z" fill="white"/>
<path d="M2.74286 10.0136V7.53276H7.88571V15.3296C8.5785 16.1092 9.03857 16.1061 9.94286 15.3296V7.53276H15.0857V15.3296C16.1143 16.3928 16.8 15.3296 16.8 15.3296V11.7856C16.8 11.7856 16.4571 9.30482 18.1714 7.88703C19.8857 6.46925 23.5123 7.17558 24 7.17836V12.8488H21.9429V16.7472C21.9429 17.8104 20.2286 21 17.1429 21C14.0571 21 12.3429 19.5824 12.3429 19.5824C12.3429 19.5824 9.6 21 7.54286 21C5.48571 21 4.11429 19.9368 3.08571 18.1648V14.9752H0V10.0136H2.74286Z" fill="white"/>
<circle cx="13" cy="3" r="3" fill="#EC1D24"/>
</svg>
